<svg version="1.1" xmlns="http://www.w3.org/2000/svg" xmlns:xlink="http://www.w3.org/1999/xlink" width="185.0587" height="91.63395" viewBox="0,0,185.0587,91.63395"><g transform="translate(-162.50306,-125.41458)"><g data-paper-data="{&quot;isPaintingLayer&quot;:true}" fill="#ff8766" fill-rule="nonzero" stroke="#ffffff" stroke-width="2" stroke-linecap="butt" stroke-linejoin="miter" stroke-miterlimit="10" stroke-dasharray="" stroke-dashoffset="0" style="mix-blend-mode: normal"><path d="M169.64105,153.51568c0,-2.5 2.5,-2.5 2.5,-2.5h2.728c5.11858,0.10366 10.54325,2.56615 11.98112,8.06361c0.79332,3.03315 -0.64853,6.47177 -1.37177,9.36472c-0.84923,3.05606 -0.72445,4.82145 -4.19665,6.47736c-1.1101,0.52941 -2.45503,0.16858 -3.68471,0.1903c-5.24782,0.0927 -11.9406,-3.32186 -13.9657,-8.52943c-1.00196,-2.57656 -0.12829,-5.52805 -0.12829,-8.29256c0,-2.91954 -0.59599,-5.91508 0.06688,-8.75838c0.62962,-2.70069 2.31245,-4.09757 3.7685,-6.27659c2.14697,-3.213 3.22675,-7.22728 5.50251,-10.2968c1.27459,-1.71916 2.95034,-3.18656 3.88403,-5.11225c0,0 1.11803,-2.23607 3.3541,-1.11803c2.23607,1.11803 1.11803,3.3541 1.11803,3.3541c-1.09637,2.14239 -2.84405,3.88344 -4.29996,5.79974c-2.24475,2.95459 -3.31868,7.01996 -5.40948,10.16319c-0.51273,0.77082 -2.7884,3.35432 -3.0515,4.63541c-0.51029,2.48478 0.06688,5.07298 0.06688,7.60961c0,2.23755 -0.86234,4.59771 -0.12829,6.71143c1.10153,3.17192 7.69446,6.28831 10.99357,5.30087c1.04559,-0.31295 1.1572,-2.57362 1.25935,-3.07064c1.07487,-4.29949 2.76971,-7.47335 -1.61697,-10.22503c-0.63586,-0.39886 -1.25804,-0.8829 -1.98805,-1.0575c-0.69852,-0.16707 -1.43574,0.04459 -2.15362,0.06688h-2.728c0,0 -2.5,0 -2.5,-2.5z"/><path d="M201.76968,170.64133c0.60634,-2.42536 3.0317,-1.81902 3.0317,-1.81902l2.42712,0.62609c1.2725,-0.00984 5.2369,0.67353 6.31422,-0.15084c0.71271,-0.54537 0.51053,-2.73287 0.44048,-3.25955c-0.2834,-2.13073 -0.30959,-5.82086 -3.19673,-5.94081c-3.56352,-0.14805 -3.30061,2.40266 -5.1468,4.28079c-0.05304,0.05396 -0.1066,0.10733 -0.16065,0.16015l0.03403,0.02552l-2.02854,2.70472c-0.45492,0.62044 -1.18914,1.02328 -2.01746,1.02328c-1.38071,0 -2.5,-1.11929 -2.5,-2.5v-2.49797c-0.99077,-4.01704 -0.9278,-8.10902 -1.34527,-12.20056c-0.11425,-1.11973 -1.00102,-2.22575 -0.6858,-3.30625c0.53345,-1.82855 1.34994,-3.98491 3.0585,-4.82691c1.28426,-0.6329 2.68843,1.02474 4.09295,1.30258c3.54704,0.70168 8.03291,-0.06688 11.70161,-0.06688c0,0 2.5,0 2.5,2.5c0,2.5 -2.5,2.5 -2.5,2.5c-3.80817,0 -9.28438,1.07375 -12.85037,-0.06688c-0.62616,-0.20028 -0.84247,-1.02393 -1.36305,-1.42541c-0.18757,-0.14466 0.24968,0.40642 0.3305,0.62908c0.25638,0.7063 0.5873,1.40387 0.6782,2.14975c0.13989,1.14788 -0.10861,2.31849 0.00656,3.46911c0.14554,1.45403 0.30902,2.95539 0.52508,4.44753c1.94723,-2.19023 5.59663,-3.5959 8.12765,-3.28072c1.77653,0.22123 3.6472,0.85703 4.9492,2.08576c1.18541,1.1187 1.47957,2.91831 1.99259,4.4654c1.162,3.50415 1.72441,8.76007 -1.51404,11.52847c-2.34068,2.00093 -7.25747,1.23043 -10.05377,1.21316l-3.02888,-0.73791c0,0 -2.42536,-0.60634 -1.81902,-3.0317z"/><path d="M247.16101,173.74767c-2.5,0 -2.5,-2.5 -2.5,-2.5v-2.046c0.00589,-1.74333 -0.19344,-3.43383 -0.37808,-5.12939c-3.68849,2.6617 -8.82113,4.06711 -11.52454,0.30572c-0.92194,-1.28274 -0.30123,-3.14629 -0.37337,-4.72433c-0.21427,-4.68716 0.94625,-8.63469 4.14223,-11.99776c0,0 1.76777,-1.76777 3.53553,0c1.76777,1.76777 0,3.53553 0,3.53553c-2.4847,2.29014 -3.39146,7.16362 -3.05114,10.5579c0.07967,0.7946 1.51601,-0.52899 2.21134,-0.92174c2.40061,-1.35597 4.40585,-1.49542 4.07403,-4.58393l0,-2.728c0,0 0,0 0,0c0,-1.38071 1.11929,-2.5 2.5,-2.5c1.18975,0 2.18539,0.83109 2.43804,1.9444l0.66932,2.67726l-0.06679,0.0167c0.04295,0.09361 0.08391,0.1883 0.1227,0.28418c0.18962,0.46865 -0.0902,5.25119 0.01021,6.23725c0.23841,2.34124 0.68369,4.67286 0.69052,7.0262v2.046c0,0 0,2.5 -2.5,2.5z"/><path d="M268.98499,173.74767c-2.5,0 -2.5,-2.5 -2.5,-2.5v-1.364c0.02194,-2.83726 -0.66435,-5.32521 -0.682,-8.18399c0,0 0,-2.5 2.5,-2.5c2.5,0 2.5,2.5 2.5,2.5c-0.02194,2.83726 0.66435,5.32521 0.682,8.18399v1.364c0,0 0,2.5 -2.5,2.5z"/><path d="M266.48499,154.19768c0,-1.38071 1.11929,-2.5 2.5,-2.5c1.38071,0 2.5,1.11929 2.5,2.5c0,1.38071 -1.11929,2.5 -2.5,2.5c-1.38071,0 -2.5,-1.11929 -2.5,-2.5z"/><path d="M292.17298,169.65567c-2.5,0 -2.5,-2.5 -2.5,-2.5l0.26393,-0.24597c-1.21217,-2.44617 -2.80834,-5.48314 -4.8218,-7.38265c-0.46098,-0.43489 -1.14921,-0.53769 -1.70051,-0.85026c-0.22317,-0.12653 -0.5157,-0.69912 -0.61509,-0.46261c-0.22165,0.52749 0.29329,1.17967 0.08917,1.71419c-0.4729,1.23834 -1.48616,2.20845 -2.046,3.41c-0.17044,0.36582 -0.33346,0.73502 -0.4917,1.10639c0,0.22163 0,0.44327 0,0.6649v2.728c0,1.38071 -1.11929,2.5 -2.5,2.5c-1.38071,0 -2.5,-1.11929 -2.5,-2.5c0,-0.11783 0,-2.96366 0,-3.08149c-0.11983,-0.32855 -0.10532,-0.74091 0,-1.20007c0,-2.66481 0,-5.32962 0,-7.99443c0,0 0,-2.5 2.5,-2.5c1.13051,0 1.7498,0.51122 2.08904,1.07131c6.5322,-4.05367 12.30504,6.24586 14.46901,10.54065l0.26393,2.48203c0,0 0,2.5 -2.5,2.5z"/><path d="M276.48699,203.75565c-2.5,0 -2.5,-2.5 -2.5,-2.5v-0.682c0.01504,-0.75174 -0.00375,-1.50493 0.04511,-2.25523c0.27524,-4.22639 -0.77839,3.54816 -1.30437,4.3884c-0.03048,0.04868 -0.06127,0.09714 -0.09237,0.14537l0.03483,0.01393l-1.34237,3.35593c-0.35452,0.94948 -1.26971,1.62559 -2.34282,1.62559c-1.38071,0 -2.5,-1.11929 -2.5,-2.5v-2.728c0.04909,-1.58096 -0.65026,-3.10878 -1.20871,-4.58863c-0.08816,-0.23362 -0.63364,-3.43101 -1.21973,-3.96744c-0.16046,-0.14687 -0.37694,0.23569 -0.50868,0.40879c-0.55602,0.73055 -0.95391,1.57683 -1.54023,2.28329c-0.61028,0.73534 -1.27753,1.4176 -1.9725,2.07389l-1.06585,2.13169c-0.40086,0.84561 -1.26228,1.43041 -2.26029,1.43041c-1.38071,0 -2.5,-1.11929 -2.5,-2.5c0,-1.81867 0,-6.36533 0,-8.18399c0,0 0,-2.5 2.5,-2.5c2.5,0 2.5,2.5 2.5,2.5c0,0.17757 0,0.35514 0,0.53272c1.52166,-2.04604 2.99181,-4.1695 6.52044,-2.88864c1.94116,0.70462 3.34555,3.06996 4.28116,5.70909c1.12632,-2.21085 2.9132,-4.1644 6.00084,-2.96197c1.87407,0.72982 2.26418,3.37644 2.93044,5.27403c0.35348,1.00678 0.03007,2.13384 0.04511,3.20077v0.682c0,0 0,2.5 -2.5,2.5z"/><path d="M299.79193,198.27854c-0.36663,1.54572 -0.79673,3.07853 -1.04569,4.64656c-0.09663,0.60864 -0.03261,1.23209 -0.04815,1.84816c-0.00867,0.34369 -0.36252,0.96846 -0.02448,1.0311c0.44688,0.0828 0.65489,-0.66766 1.07702,-0.83607c2.16045,-0.86195 10.58914,-1.52293 9.8076,-5.71618c-0.19295,-1.03525 -1.96214,-0.78753 -2.98761,-1.0271c-1.58646,-0.37063 -3.22053,-0.61995 -4.84966,-0.60736l-0.24597,0.41807c0,0 -0.80051,0.40025 -1.68308,0.24283zM298.49626,194.12772c0.36658,-0.37609 0.74267,-0.56414 0.74267,-0.56414l2.48203,-0.94593c2.03642,0.01257 4.09219,0.2412 6.06234,0.75664c1.12238,0.29364 2.39185,0.28272 3.35341,0.93186c1.31087,0.88497 2.80159,1.96824 3.20698,3.49704c1.78066,6.71519 -5.75304,10.09579 -10.65239,11.33381c-1.31501,0.33229 -6.25102,1.67766 -7.10698,1.20993c-1.52431,-0.83295 -2.18062,-2.78469 -2.75248,-4.4249c-0.98229,-2.81738 0.79559,-7.17729 1.34567,-9.93067c0,0 0.49029,-2.45145 2.94174,-1.96116c0.13431,0.02686 0.25979,0.05961 0.377,0.09752z"/><path d="M346.08507,210.78089c1.38675,2.08013 -0.69338,3.46688 -0.69338,3.46688l-3.43275,1.78387c-1.28201,-0.08798 -2.71478,0.34562 -3.84603,-0.26393c-1.27896,-0.68914 -1.84204,-2.24862 -2.8166,-3.32606c-0.49016,-0.5419 -1.99415,-1.95311 -3.13655,-3.12932c-0.48547,0.0654 -0.97439,0.12643 -1.40238,0.33866c-1.1069,0.54887 -1.84588,1.75173 -3.01186,2.16036c-1.10759,0.38817 -2.34518,0.10419 -3.51857,0.12829c-1.83068,0.0376 -7.28103,0.08463 -8.10851,-0.96147c-1.10751,-1.40011 -0.14532,-3.63956 0.39517,-5.34096c0.39412,-1.24063 1.52937,-2.10693 2.30334,-3.15357c0.46547,-0.62945 4.27965,-5.74726 4.63022,-5.9841c1.39763,-0.9442 3.17547,-1.1384 4.7632,-1.7076c0,0 1.37399,-0.458 2.37899,0.36899c-0.03864,-2.73991 -0.30697,-6.00783 1.78048,-8.23951c0.11513,-0.12308 0.23545,-0.23966 0.36031,-0.35057l-0.04097,-0.04097l2.046,-2.046c0.45241,-0.45241 1.07741,-0.73223 1.76777,-0.73223c1.38071,0 2.5,1.11929 2.5,2.5v3.41l-0.07539,0l0.06322,0.24634c-0.40862,2.07578 -1.10493,4.09823 -1.37056,6.19711c-0.41139,3.25057 0.8474,6.72682 -0.98777,9.79228c-0.17623,0.29438 -0.37346,0.57765 -0.58815,0.84871c0.86569,0.88774 2.24048,1.43286 3.02929,2.41953c0.51674,0.64636 0.58052,1.68055 1.2754,2.12993c0.45665,0.29532 1.07331,-0.17595 1.60996,-0.26393l0.65925,-0.94412c0,0 2.08013,-1.38675 3.46688,0.69338zM330.27641,204.7764c-0.09545,-1.73929 0.0236,-3.74989 0.14203,-5.56059c-0.34055,0.22408 -0.62692,0.31954 -0.62692,0.31954c-4.24774,1.26707 -4.35627,2.51352 -6.97456,5.94829c-0.32222,0.42269 -0.6084,0.88007 -0.92113,1.31257c1.41284,-0.06289 3.12861,0.74089 4.26855,0.27172c0.96028,-0.39523 1.51715,-1.46363 2.44414,-1.93163c0.50703,-0.25598 1.09793,-0.27738 1.66789,-0.35989z"/></g></g></svg>